<svg xmlns="http://www.w3.org/2000/svg" xmlns:xlink="http://www.w3.org/1999/xlink" preserveAspectRatio="xMidYMid" width="38" height="38" viewBox="0 0 38 38">
  <defs>
    <style>

      .cls-3 {
        fill: #000000;
      }

      .cls-4 {
        fill: #ffffff;
      }
    </style>
  </defs>
  <g id="addresssvg">
    <circle id="circle-1" class="cls-3" cx="19" cy="19" r="19"/>
    <path d="M23.861,19.482 C23.849,19.505 23.847,19.532 23.832,19.555 C23.832,19.555 19.832,25.554 19.832,25.554 C19.647,25.833 19.334,26.000 19.000,26.000 C18.666,26.000 18.353,25.833 18.168,25.554 C18.168,25.554 14.168,19.555 14.168,19.555 C14.153,19.532 14.151,19.505 14.139,19.482 C13.428,18.502 13.000,17.305 13.000,16.000 C13.000,12.686 15.687,10.000 19.000,10.000 C22.313,10.000 25.000,12.686 25.000,16.000 C25.000,17.305 24.572,18.502 23.861,19.482 ZM19.000,12.000 C16.791,12.000 15.000,13.791 15.000,16.000 C15.000,17.007 15.625,18.000 16.000,18.697 C16.000,18.697 19.000,23.197 19.000,23.197 C19.000,23.197 22.000,18.697 22.000,18.697 C22.486,18.000 23.000,17.007 23.000,16.000 C23.000,13.791 21.209,12.000 19.000,12.000 ZM19.000,18.000 C17.895,18.000 17.000,17.104 17.000,16.000 C17.000,14.895 17.895,14.000 19.000,14.000 C20.105,14.000 21.000,14.895 21.000,16.000 C21.000,17.104 20.105,18.000 19.000,18.000 Z" id="path-1" class="cls-4" fill-rule="evenodd"/>
  </g>
</svg>
