<svg xmlns="http://www.w3.org/2000/svg" xmlns:xlink="http://www.w3.org/1999/xlink" preserveAspectRatio="xMidYMid" width="55" height="55" viewBox="0 0 55 55">
  <defs>
    <style>

      .cls-2 {
        fill: #ffffff;
        filter: url(#color-overlay-1);
      }
    </style>

    <filter id="color-overlay-1" filterUnits="userSpaceOnUse">
      <feFlood flood-color="#393939" flood-opacity="1"/>
      <feComposite operator="in" in2="SourceGraphic"/>
      <feBlend mode="normal" in2="SourceGraphic" result="colorOverlay"/>
    </filter>
  </defs>
  <path d="M53.229,10.290 C53.229,10.290 25.155,38.375 25.155,38.375 C25.751,40.988 25.393,44.231 22.169,47.457 C18.127,51.501 14.331,51.965 10.312,52.458 C7.458,52.807 4.509,53.169 1.262,54.918 C0.927,55.098 0.513,55.038 0.245,54.768 C-0.024,54.501 -0.085,54.087 0.095,53.751 C1.843,50.503 2.204,47.552 2.554,44.697 C3.046,40.675 3.511,36.877 7.553,32.833 C10.778,29.608 14.019,29.250 16.629,29.845 C16.629,29.845 44.702,1.759 44.702,1.759 C47.057,-0.597 50.873,-0.597 53.229,1.759 C55.583,4.115 55.583,7.933 53.229,10.290 ZM8.770,34.052 C5.149,37.675 4.739,41.027 4.263,44.905 C3.973,47.284 3.674,49.725 2.626,52.387 C5.285,51.337 7.725,51.039 10.103,50.747 C13.980,50.273 17.329,49.862 20.951,46.238 C26.949,40.238 21.197,34.301 20.950,34.051 C20.702,33.807 14.767,28.052 8.770,34.052 ZM18.467,30.445 C20.691,31.390 22.137,32.801 22.170,32.833 C22.201,32.865 23.612,34.312 24.557,36.538 C24.557,36.538 44.702,16.382 44.702,16.382 C44.702,16.382 38.612,10.290 38.612,10.290 C38.612,10.290 18.467,30.445 18.467,30.445 ZM39.830,9.071 C39.830,9.071 45.920,15.164 45.920,15.164 C45.920,15.164 47.138,13.945 47.138,13.945 C47.138,13.945 41.049,7.852 41.049,7.852 C41.049,7.852 39.830,9.071 39.830,9.071 ZM52.010,2.978 C50.328,1.295 47.602,1.295 45.920,2.978 C45.920,2.978 42.266,6.633 42.266,6.633 C42.266,6.633 48.357,12.727 48.357,12.727 C48.357,12.727 52.010,9.071 52.010,9.071 C53.692,7.388 53.692,4.661 52.010,2.978 ZM19.733,45.021 C19.396,45.356 18.851,45.356 18.515,45.021 C18.178,44.684 18.177,44.139 18.515,43.802 C20.533,41.782 20.533,38.508 18.515,36.490 C18.178,36.153 18.178,35.608 18.515,35.272 C18.851,34.934 19.396,34.934 19.733,35.272 C22.423,37.963 22.423,42.328 19.733,45.021 Z" id="path-1" class="cls-2" fill-rule="evenodd"/>
</svg>
