<?xml version="1.0" encoding="utf-8"?>
<!-- Generator: Avocode 2.4.3-3630f5a - http://avocode.com -->
<svg height="49" width="49" xmlns:xlink="http://www.w3.org/1999/xlink" xmlns="http://www.w3.org/2000/svg" viewBox="0 0 49 49">
    <path fill="#393939" fill-rule="evenodd" d="M 24.5 49 C 10.97 49 0 38.03 0 24.5 C 0 10.97 10.97 0 24.5 0 C 38.03 0 49 10.97 49 24.5 C 49 38.03 38.03 49 24.5 49 Z M 24.5 1.53 C 11.81 1.53 1.53 11.81 1.53 24.5 C 1.53 37.18 11.81 47.47 24.5 47.47 C 37.19 47.47 47.47 37.18 47.47 24.5 C 47.47 11.81 37.19 1.53 24.5 1.53 Z M 24.5 45.94 C 12.66 45.94 3.06 36.34 3.06 24.5 C 3.06 12.66 12.66 3.06 24.5 3.06 C 36.34 3.06 45.94 12.66 45.94 24.5 C 45.94 36.34 36.34 45.94 24.5 45.94 Z M 39.1 10.98 C 39.1 10.98 37.49 12.59 37.49 12.59 C 37.19 12.89 36.71 12.89 36.41 12.59 C 36.11 12.29 36.11 11.81 36.41 11.51 C 36.41 11.51 38.02 9.9 38.02 9.9 C 34.64 6.77 30.18 4.8 25.27 4.61 C 25.27 4.61 25.27 6.89 25.27 6.89 C 25.27 7.31 24.92 7.66 24.5 7.66 C 24.08 7.66 23.73 7.31 23.73 6.89 C 23.73 6.89 23.73 4.61 23.73 4.61 C 18.82 4.8 14.35 6.77 10.98 9.9 C 10.98 9.9 12.59 11.51 12.59 11.51 C 12.89 11.81 12.89 12.29 12.59 12.59 C 12.29 12.89 11.81 12.89 11.51 12.59 C 11.51 12.59 9.89 10.98 9.89 10.98 C 6.77 14.36 4.8 18.82 4.61 23.74 C 4.61 23.74 6.89 23.74 6.89 23.74 C 7.31 23.74 7.65 24.08 7.65 24.5 C 7.65 24.92 7.31 25.27 6.89 25.27 C 6.89 25.27 4.61 25.27 4.61 25.27 C 4.8 30.19 6.77 34.65 9.9 38.02 C 9.9 38.02 11.51 36.41 11.51 36.41 C 11.81 36.11 12.29 36.11 12.59 36.41 C 12.89 36.71 12.89 37.19 12.59 37.49 C 12.59 37.49 10.98 39.11 10.98 39.11 C 14.36 42.23 18.82 44.2 23.73 44.39 C 23.73 44.39 23.74 42.11 23.74 42.11 C 23.74 41.69 24.08 41.35 24.5 41.34 C 24.92 41.34 25.27 41.69 25.27 42.11 C 25.27 42.11 25.27 44.39 25.27 44.39 C 30.18 44.2 34.65 42.23 38.02 39.1 C 38.02 39.1 36.41 37.49 36.41 37.49 C 36.11 37.19 36.11 36.71 36.41 36.41 C 36.71 36.11 37.19 36.11 37.49 36.41 C 37.49 36.41 39.1 38.02 39.1 38.02 C 42.23 34.64 44.2 30.18 44.39 25.27 C 44.39 25.27 42.11 25.27 42.11 25.27 C 41.69 25.27 41.34 24.92 41.34 24.5 C 41.34 24.08 41.69 23.73 42.11 23.73 C 42.11 23.73 44.39 23.73 44.39 23.73 C 44.2 18.82 42.23 14.35 39.1 10.98 Z M 31.54 34.79 C 31.54 34.79 25.03 28.28 25.03 28.28 C 24.85 28.3 24.68 28.33 24.5 28.33 C 22.38 28.33 20.67 26.61 20.67 24.5 C 20.67 23.25 21.28 22.15 22.2 21.45 C 22.2 21.45 22.2 10.72 22.2 10.72 C 22.2 9.45 23.23 8.42 24.5 8.42 C 25.77 8.42 26.8 9.45 26.8 10.72 C 26.8 10.72 26.8 21.45 26.8 21.45 C 27.72 22.15 28.33 23.25 28.33 24.5 C 28.33 24.68 28.3 24.85 28.28 25.03 C 28.28 25.03 34.79 31.54 34.79 31.54 C 35.68 32.43 35.68 33.89 34.79 34.79 C 33.89 35.68 32.43 35.68 31.54 34.79 Z M 25.27 10.72 C 25.27 10.3 24.92 9.95 24.5 9.95 C 24.08 9.95 23.73 10.3 23.73 10.72 C 23.73 10.72 23.73 20.75 23.73 20.75 C 23.98 20.7 24.24 20.67 24.5 20.67 C 24.76 20.67 25.02 20.7 25.27 20.75 C 25.27 20.75 25.27 10.72 25.27 10.72 Z M 24.5 22.2 C 23.23 22.2 22.2 23.23 22.2 24.5 C 22.2 25.77 23.23 26.8 24.5 26.8 C 25.77 26.8 26.8 25.77 26.8 24.5 C 26.8 23.23 25.77 22.2 24.5 22.2 Z M 33.7 32.62 C 33.7 32.62 27.69 26.61 27.69 26.61 C 27.41 27.04 27.04 27.41 26.61 27.69 C 26.61 27.69 32.62 33.7 32.62 33.7 C 32.92 34 33.4 34 33.7 33.7 C 34 33.4 34 32.92 33.7 32.62 Z M 24.5 25.27 C 24.08 25.27 23.73 24.92 23.73 24.5 C 23.73 24.08 24.08 23.73 24.5 23.73 C 24.92 23.73 25.27 24.08 25.27 24.5 C 25.27 24.92 24.92 25.27 24.5 25.27 Z" />
</svg>