<svg xmlns="http://www.w3.org/2000/svg" xmlns:xlink="http://www.w3.org/1999/xlink" preserveAspectRatio="xMidYMid" width="89" height="49" viewBox="0 0 89 49">
  <defs>
    <style>

      .cls-2 {
        fill: #ecba45;
        stroke: #393939;
        stroke-linejoin: round;
        stroke-width: 2px;
        fill-opacity: 0;
      }
    </style>
  </defs>
  <path d="M88.000,32.794 C88.000,38.132 85.647,42.755 81.627,45.058 C79.377,46.953 75.913,48.053 70.738,48.000 C70.738,48.000 41.738,48.000 41.738,48.000 C41.738,48.000 14.119,48.000 14.119,48.000 C6.874,48.000 1.000,42.120 1.000,34.868 C1.000,28.324 5.785,22.915 12.040,21.915 C12.039,21.854 12.031,21.795 12.031,21.734 C12.031,14.856 17.600,9.281 24.469,9.281 C27.309,9.281 29.918,10.243 32.009,11.850 C36.021,5.340 43.206,1.000 51.406,1.000 C61.377,1.000 69.846,7.417 72.934,16.350 C76.376,16.770 79.587,18.198 81.871,20.665 C85.744,23.012 88.000,27.563 88.000,32.794 Z" id="path-1" class="cls-2" fill-rule="evenodd"/>
</svg>
