<?xml version="1.0" encoding="utf-8"?>
<!-- Generator: Avocode 2.4.3-3630f5a - http://avocode.com -->
<svg height="55" width="55" xmlns:xlink="http://www.w3.org/1999/xlink" xmlns="http://www.w3.org/2000/svg" viewBox="0 0 55 55">
    <path fill="#393939" fill-rule="evenodd" d="M 51.56 34.38 C 51.56 34.38 46.95 34.38 46.95 34.38 C 46.7 35.06 46.43 35.74 46.11 36.39 C 46.11 36.39 49.38 39.65 49.38 39.65 C 50.72 41 50.72 43.17 49.38 44.51 C 49.38 44.51 44.52 49.38 44.52 49.38 C 43.17 50.72 41 50.72 39.65 49.38 C 39.65 49.38 36.39 46.11 36.39 46.11 C 35.74 46.43 35.07 46.7 34.38 46.95 C 34.38 46.95 34.38 51.56 34.38 51.56 C 34.38 53.46 32.84 55 30.94 55 C 30.94 55 24.06 55 24.06 55 C 22.17 55 20.63 53.46 20.63 51.56 C 20.63 51.56 20.63 46.95 20.63 46.95 C 19.94 46.7 19.26 46.43 18.61 46.11 C 18.61 46.11 15.35 49.38 15.35 49.38 C 14.01 50.72 11.83 50.72 10.49 49.38 C 10.49 49.38 5.62 44.52 5.62 44.52 C 4.28 43.18 4.28 41 5.62 39.66 C 5.62 39.66 8.89 36.39 8.89 36.39 C 8.57 35.74 8.3 35.07 8.05 34.38 C 8.05 34.38 3.44 34.38 3.44 34.38 C 1.54 34.38 0 32.84 0 30.94 C 0 30.94 0 24.06 0 24.06 C 0 22.16 1.54 20.63 3.44 20.63 C 3.44 20.63 8.05 20.63 8.05 20.63 C 8.3 19.94 8.57 19.26 8.89 18.61 C 8.89 18.61 5.62 15.35 5.62 15.35 C 4.28 14 4.28 11.83 5.62 10.49 C 5.62 10.49 10.48 5.62 10.48 5.62 C 11.83 4.28 14 4.28 15.35 5.62 C 15.35 5.62 18.61 8.89 18.61 8.89 C 19.26 8.57 19.93 8.3 20.62 8.05 C 20.62 8.05 20.62 3.44 20.62 3.44 C 20.62 1.54 22.16 0 24.06 0 C 24.06 0 30.94 0 30.94 0 C 32.83 0 34.37 1.54 34.38 3.44 C 34.38 3.44 34.38 8.05 34.38 8.05 C 35.06 8.3 35.74 8.57 36.39 8.89 C 36.39 8.89 39.65 5.62 39.65 5.62 C 40.99 4.28 43.17 4.28 44.51 5.62 C 44.51 5.62 49.38 10.48 49.38 10.48 C 50.72 11.82 50.72 14 49.38 15.34 C 49.38 15.34 46.11 18.61 46.11 18.61 C 46.43 19.26 46.7 19.93 46.95 20.63 C 46.95 20.63 51.56 20.63 51.56 20.63 C 53.46 20.63 55 22.16 55 24.06 C 55 24.06 55 30.94 55 30.94 C 55 32.84 53.46 34.38 51.56 34.38 Z M 53.28 24.06 C 53.28 23.11 52.51 22.34 51.56 22.34 C 51.56 22.34 47.16 22.34 46.41 22.34 C 45.65 22.34 45.52 21.76 45.42 21.48 C 45.32 21.19 45.22 20.91 45.11 20.63 C 45.02 20.38 44.92 20.14 44.81 19.91 C 44.68 19.6 44.54 19.3 44.39 19.01 C 44.27 18.76 44.05 18.24 44.69 17.6 C 45.33 16.97 48.16 14.13 48.16 14.13 C 48.83 13.46 48.83 12.37 48.16 11.7 C 48.16 11.7 43.3 6.84 43.3 6.84 C 42.63 6.16 41.54 6.17 40.87 6.84 C 40.87 6.84 38.14 9.57 37.41 10.3 C 36.68 11.03 36.18 10.7 35.91 10.57 C 35.64 10.43 35.37 10.3 35.09 10.18 C 34.85 10.08 34.62 9.98 34.38 9.89 C 34.06 9.76 33.74 9.65 33.42 9.54 C 33.17 9.46 32.66 9.44 32.66 8.59 C 32.66 7.75 32.66 3.44 32.66 3.44 C 32.65 2.49 31.89 1.72 30.94 1.72 C 30.94 1.72 24.06 1.72 24.06 1.72 C 23.11 1.72 22.34 2.49 22.34 3.44 C 22.34 3.44 22.34 7.73 22.34 8.59 C 22.34 9.45 21.73 9.49 21.43 9.6 C 21.16 9.69 20.89 9.78 20.62 9.89 C 20.38 9.98 20.14 10.08 19.91 10.18 C 19.61 10.32 19.32 10.45 19.03 10.6 C 18.78 10.72 18.38 11.09 17.63 10.33 C 16.87 9.57 14.13 6.84 14.13 6.84 C 13.46 6.17 12.37 6.17 11.7 6.84 C 11.7 6.84 6.84 11.7 6.84 11.7 C 6.17 12.37 6.17 13.46 6.84 14.13 C 6.84 14.13 9.62 16.91 10.31 17.6 C 11 18.3 10.69 18.85 10.55 19.13 C 10.42 19.39 10.3 19.64 10.18 19.91 C 10.08 20.14 9.98 20.38 9.89 20.63 C 9.78 20.91 9.68 21.19 9.58 21.48 C 9.48 21.76 9.35 22.34 8.59 22.34 C 7.84 22.34 3.44 22.34 3.44 22.34 C 2.49 22.34 1.72 23.11 1.72 24.06 C 1.72 24.06 1.72 30.94 1.72 30.94 C 1.72 31.89 2.49 32.66 3.44 32.66 C 3.44 32.66 7.84 32.66 8.59 32.66 C 9.35 32.66 9.48 33.24 9.58 33.52 C 9.68 33.81 9.78 34.09 9.89 34.38 C 9.98 34.62 10.08 34.86 10.19 35.09 C 10.32 35.4 10.46 35.7 10.61 35.99 C 10.73 36.24 10.95 36.76 10.31 37.4 C 9.67 38.03 6.84 40.87 6.84 40.87 C 6.17 41.54 6.17 42.63 6.84 43.3 C 6.84 43.3 11.7 48.16 11.7 48.16 C 12.37 48.84 13.46 48.83 14.13 48.16 C 14.13 48.16 16.86 45.43 17.59 44.7 C 18.32 43.97 18.82 44.3 19.09 44.43 C 19.36 44.57 19.63 44.69 19.91 44.82 C 20.15 44.92 20.38 45.02 20.63 45.11 C 20.94 45.24 21.26 45.35 21.58 45.46 C 21.83 45.54 22.34 45.56 22.34 46.41 C 22.34 47.25 22.34 51.56 22.34 51.56 C 22.35 52.51 23.11 53.28 24.06 53.28 C 24.06 53.28 30.94 53.28 30.94 53.28 C 31.89 53.28 32.66 52.51 32.66 51.56 C 32.66 51.56 32.66 47.26 32.66 46.41 C 32.66 45.55 33.27 45.51 33.57 45.4 C 33.84 45.31 34.11 45.22 34.38 45.11 C 34.62 45.02 34.86 44.92 35.09 44.82 C 35.39 44.68 35.68 44.55 35.97 44.4 C 36.22 44.28 36.62 43.91 37.38 44.67 C 38.13 45.43 40.87 48.16 40.87 48.16 C 41.54 48.83 42.63 48.83 43.3 48.16 C 43.3 48.16 48.16 43.3 48.16 43.3 C 48.83 42.63 48.83 41.54 48.16 40.87 C 48.16 40.87 45.38 38.09 44.69 37.39 C 44 36.7 44.31 36.15 44.45 35.87 C 44.58 35.61 44.7 35.35 44.82 35.09 C 44.92 34.86 45.02 34.62 45.11 34.38 C 45.22 34.09 45.32 33.81 45.42 33.52 C 45.52 33.24 45.65 32.66 46.41 32.66 C 47.16 32.66 51.56 32.66 51.56 32.66 C 52.51 32.66 53.28 31.89 53.28 30.94 C 53.28 30.94 53.28 24.06 53.28 24.06 Z M 27.5 39.53 C 20.86 39.53 15.47 34.14 15.47 27.5 C 15.47 20.86 20.86 15.47 27.5 15.47 C 34.14 15.47 39.53 20.86 39.53 27.5 C 39.53 34.14 34.14 39.53 27.5 39.53 Z M 27.5 17.19 C 21.81 17.19 17.19 21.8 17.19 27.5 C 17.19 33.2 21.81 37.81 27.5 37.81 C 33.19 37.81 37.81 33.2 37.81 27.5 C 37.81 21.8 33.19 17.19 27.5 17.19 Z M 27.5 30.94 C 25.6 30.94 24.06 29.4 24.06 27.5 C 24.06 25.6 25.6 24.06 27.5 24.06 C 29.4 24.06 30.94 25.6 30.94 27.5 C 30.94 29.4 29.4 30.94 27.5 30.94 Z M 27.5 25.78 C 26.55 25.78 25.78 26.55 25.78 27.5 C 25.78 28.45 26.55 29.22 27.5 29.22 C 28.45 29.22 29.22 28.45 29.22 27.5 C 29.22 26.55 28.45 25.78 27.5 25.78 Z" />
</svg>