<?xml version="1.0" encoding="utf-8"?>
<!-- Generator: Avocode 2.4.3-3630f5a - http://avocode.com -->
<svg height="58" width="58" xmlns:xlink="http://www.w3.org/1999/xlink" xmlns="http://www.w3.org/2000/svg" viewBox="0 0 58 58">
    <path fill="#393939" fill-rule="evenodd" d="M 54.38 43.5 C 54.38 43.5 32.63 43.5 32.63 43.5 C 32.63 43.5 32.63 52.56 32.63 52.56 C 32.63 52.56 39.88 52.56 39.88 52.56 C 41.88 52.56 43.5 54.19 43.5 56.19 C 43.5 56.19 43.5 57.09 43.5 57.09 C 43.5 57.59 43.1 58 42.59 58 C 42.59 58 15.41 58 15.41 58 C 14.9 58 14.5 57.59 14.5 57.09 C 14.5 57.09 14.5 56.19 14.5 56.19 C 14.5 54.19 16.12 52.56 18.13 52.56 C 18.13 52.56 25.38 52.56 25.38 52.56 C 25.38 52.56 25.38 43.5 25.38 43.5 C 25.38 43.5 3.63 43.5 3.63 43.5 C 1.62 43.5 0 41.88 0 39.88 C 0 39.88 0 3.63 0 3.63 C 0 1.62 1.62 0 3.63 0 C 3.63 0 54.38 0 54.38 0 C 56.38 0 58 1.62 58 3.63 C 58 3.63 58 39.88 58 39.88 C 58 41.88 56.38 43.5 54.38 43.5 Z M 18.13 54.38 C 17.12 54.38 16.31 55.19 16.31 56.19 C 16.31 56.19 41.69 56.19 41.69 56.19 C 41.69 55.19 40.88 54.38 39.88 54.38 C 39.88 54.38 18.13 54.38 18.13 54.38 Z M 30.81 52.56 C 30.81 52.56 30.81 43.5 30.81 43.5 C 30.81 43.5 27.19 43.5 27.19 43.5 C 27.19 43.5 27.19 52.56 27.19 52.56 C 27.19 52.56 30.81 52.56 30.81 52.56 Z M 56.19 3.63 C 56.19 2.62 55.38 1.81 54.38 1.81 C 54.38 1.81 3.63 1.81 3.63 1.81 C 2.62 1.81 1.81 2.62 1.81 3.63 C 1.81 3.63 1.81 34.44 1.81 34.44 C 1.81 34.44 56.19 34.44 56.19 34.44 C 56.19 34.44 56.19 3.63 56.19 3.63 Z M 56.19 36.25 C 56.19 36.25 1.81 36.25 1.81 36.25 C 1.81 36.25 1.81 39.88 1.81 39.88 C 1.81 40.88 2.62 41.69 3.63 41.69 C 3.63 41.69 54.38 41.69 54.38 41.69 C 55.38 41.69 56.19 40.88 56.19 39.88 C 56.19 39.88 56.19 36.25 56.19 36.25 Z M 29 40.78 C 28 40.78 27.19 39.97 27.19 38.97 C 27.19 37.97 28 37.16 29 37.16 C 30 37.16 30.81 37.97 30.81 38.97 C 30.81 39.97 30 40.78 29 40.78 Z" />
</svg>