<svg xmlns="http://www.w3.org/2000/svg" xmlns:xlink="http://www.w3.org/1999/xlink" preserveAspectRatio="xMidYMid" width="38" height="38" viewBox="0 0 38 38">
  <defs>
    <style>

      .cls-3 {
        fill: #000000;
      }

      .cls-4 {
        fill: #ffffff;
      }
    </style>
  </defs>
  <g id="emailsvg">
    <circle id="circle-1" class="cls-3" cx="19" cy="19" r="19"/>
    <path d="M26.000,12.000 C26.000,12.000 12.000,12.000 12.000,12.000 C11.447,12.000 11.000,12.447 11.000,13.000 C11.000,13.000 11.000,22.999 11.000,22.999 C11.000,23.553 11.447,24.000 12.000,24.000 C12.000,24.000 26.000,24.000 26.000,24.000 C26.553,24.000 27.000,23.553 27.000,22.999 C27.000,22.999 27.000,13.000 27.000,13.000 C27.000,12.447 26.553,12.000 26.000,12.000 ZM25.000,14.000 C25.000,14.000 25.000,14.066 25.000,14.066 C25.000,14.066 19.000,18.733 19.000,18.733 C19.000,18.733 13.000,14.066 13.000,14.066 C13.000,14.066 13.000,14.000 13.000,14.000 C13.000,14.000 25.000,14.000 25.000,14.000 ZM13.000,22.000 C13.000,22.000 13.000,16.600 13.000,16.600 C13.000,16.600 18.386,20.789 18.386,20.789 C18.566,20.930 18.783,21.000 19.000,21.000 C19.217,21.000 19.434,20.930 19.614,20.789 C19.614,20.789 25.000,16.600 25.000,16.600 C25.000,16.600 25.000,22.000 25.000,22.000 C25.000,22.000 13.000,22.000 13.000,22.000 Z" id="path-1" class="cls-4" fill-rule="evenodd"/>
  </g>
</svg>
