<?xml version="1.0" encoding="utf-8"?>
<!-- Generator: Avocode 2.4.3-3630f5a - http://avocode.com -->
<svg height="57" width="57" xmlns:xlink="http://www.w3.org/1999/xlink" xmlns="http://www.w3.org/2000/svg" viewBox="0 0 57 57">
    <path fill="#393939" fill-rule="evenodd" d="M 50.77 35.62 C 50.77 35.62 50.77 35.63 50.77 35.63 C 50.77 35.63 49.88 35.63 49.88 35.63 C 49.88 35.63 49.88 26.72 49.88 26.72 C 50.37 26.72 50.77 26.32 50.77 25.83 C 50.77 25.83 50.77 22.26 50.77 22.26 C 50.77 9.97 40.8 0 28.5 0 C 16.2 0 6.23 9.97 6.23 22.26 C 6.23 22.26 6.23 25.83 6.23 25.83 C 6.23 26.32 6.63 26.72 7.13 26.72 C 7.13 26.72 7.13 35.62 7.13 35.62 C 7.13 35.62 6.23 35.62 6.23 35.62 C 2.79 35.62 0 38.41 0 41.86 C 0 41.86 0 50.77 0 50.77 C 0 54.21 2.79 57 6.23 57 C 6.23 57 6.23 57 6.23 57 C 6.23 57 10.69 57 10.69 57 C 12.66 57 14.25 55.41 14.25 53.44 C 14.25 53.44 14.25 39.19 14.25 39.19 C 14.25 37.87 13.53 36.73 12.47 36.12 C 12.47 36.12 12.47 26.72 12.47 26.72 C 12.96 26.72 13.36 26.32 13.36 25.83 C 13.36 25.83 13.36 22.26 13.36 22.26 C 13.36 13.9 20.14 7.12 28.5 7.12 C 36.86 7.12 43.64 13.9 43.64 22.26 C 43.64 22.26 43.64 25.83 43.64 25.83 C 43.64 26.32 44.04 26.72 44.53 26.72 C 44.53 26.72 44.53 36.12 44.53 36.12 C 43.47 36.74 42.75 37.87 42.75 39.19 C 42.75 39.19 42.75 53.44 42.75 53.44 C 42.75 55.41 44.34 57 46.31 57 C 46.31 57 50.77 57 50.77 57 C 54.21 57 57 54.21 57 50.77 C 57 50.77 57 41.86 57 41.86 C 57 38.41 54.21 35.62 50.77 35.62 Z M 50.77 37.41 C 50.77 37.41 50.77 37.41 50.77 37.41 C 50.77 37.41 50.77 37.41 50.77 37.41 C 50.77 37.41 50.77 37.41 50.77 37.41 Z M 1.78 50.77 C 1.78 50.77 1.78 41.86 1.78 41.86 C 1.78 39.7 3.31 37.91 5.34 37.49 C 5.34 37.49 5.34 55.13 5.34 55.13 C 3.31 54.72 1.78 52.92 1.78 50.77 Z M 6.23 55.22 C 6.23 55.22 6.23 55.22 6.23 55.22 C 6.23 55.22 6.23 55.22 6.23 55.22 C 6.23 55.22 6.23 55.22 6.23 55.22 Z M 12.47 53.44 C 12.47 54.42 11.67 55.22 10.69 55.22 C 10.69 55.22 7.13 55.22 7.13 55.22 C 7.13 55.22 7.13 37.41 7.13 37.41 C 7.13 37.41 10.69 37.41 10.69 37.41 C 11.67 37.41 12.47 38.2 12.47 39.19 C 12.47 39.19 12.47 53.44 12.47 53.44 Z M 10.69 35.62 C 10.69 35.62 8.91 35.62 8.91 35.62 C 8.91 35.62 8.91 26.72 8.91 26.72 C 8.91 26.72 10.69 26.72 10.69 26.72 C 10.69 26.72 10.69 35.62 10.69 35.62 Z M 28.5 5.34 C 19.15 5.34 11.58 12.92 11.58 22.26 C 11.58 22.26 11.58 24.94 11.58 24.94 C 11.58 24.94 8.02 24.94 8.02 24.94 C 8.02 24.94 8.02 22.26 8.02 22.26 C 8.02 10.95 17.19 1.78 28.5 1.78 C 39.81 1.78 48.98 10.95 48.98 22.26 C 48.98 22.26 48.98 24.94 48.98 24.94 C 48.98 24.94 45.42 24.94 45.42 24.94 C 45.42 24.94 45.42 22.26 45.42 22.26 C 45.42 12.92 37.85 5.34 28.5 5.34 Z M 46.31 26.72 C 46.31 26.72 48.09 26.72 48.09 26.72 C 48.09 26.72 48.09 35.63 48.09 35.63 C 48.09 35.63 46.31 35.63 46.31 35.63 C 46.31 35.63 46.31 26.72 46.31 26.72 Z M 46.31 55.22 C 45.33 55.22 44.53 54.42 44.53 53.44 C 44.53 53.44 44.53 39.19 44.53 39.19 C 44.53 38.2 45.33 37.41 46.31 37.41 C 46.31 37.41 49.88 37.41 49.88 37.41 C 49.88 37.41 49.88 55.22 49.88 55.22 C 49.88 55.22 46.31 55.22 46.31 55.22 Z M 55.22 50.77 C 55.22 52.92 53.69 54.72 51.66 55.13 C 51.66 55.13 51.66 37.49 51.66 37.49 C 53.69 37.91 55.22 39.7 55.22 41.86 C 55.22 41.86 55.22 50.77 55.22 50.77 Z" />
</svg>