<?xml version="1.0" encoding="utf-8"?>
<!-- Generator: Avocode 2.4.3-3630f5a - http://avocode.com -->
<svg height="49" width="37" xmlns:xlink="http://www.w3.org/1999/xlink" xmlns="http://www.w3.org/2000/svg" viewBox="0 0 37 49">
    <path fill="#393939" fill-rule="evenodd" d="M 26.21 35.07 C 26.21 35.07 26.21 45.94 26.21 45.94 C 26.21 47.63 24.83 49 23.13 49 C 23.13 49 13.88 49 13.88 49 C 12.17 49 10.79 47.63 10.79 45.94 C 10.79 45.94 10.79 35.07 10.79 35.07 C 4.43 32.16 0 25.79 0 18.38 C 0 8.23 8.28 0 18.5 0 C 28.72 0 37 8.23 37 18.38 C 37 25.79 32.57 32.16 26.21 35.07 Z M 12.33 45.94 C 12.33 46.78 13.02 47.47 13.88 47.47 C 13.88 47.47 23.13 47.47 23.13 47.47 C 23.98 47.47 24.67 46.78 24.67 45.94 C 24.67 45.94 24.67 44.41 24.67 44.41 C 24.67 44.41 12.33 44.41 12.33 44.41 C 12.33 44.41 12.33 45.94 12.33 45.94 Z M 12.33 42.88 C 12.33 42.88 24.67 42.88 24.67 42.88 C 24.67 42.88 24.67 39.81 24.67 39.81 C 24.67 39.81 12.33 39.81 12.33 39.81 C 12.33 39.81 12.33 42.88 12.33 42.88 Z M 12.33 38.28 C 12.33 38.28 24.67 38.28 24.67 38.28 C 24.67 38.28 24.67 35.22 24.67 35.22 C 24.67 35.22 12.33 35.22 12.33 35.22 C 12.33 35.22 12.33 38.28 12.33 38.28 Z M 20.04 33.69 C 20.04 33.69 20.04 19.14 20.04 19.14 C 20.04 18.3 19.35 17.61 18.5 17.61 C 17.65 17.61 16.96 18.3 16.96 19.14 C 16.96 19.14 16.96 33.69 16.96 33.69 C 16.96 33.69 20.04 33.69 20.04 33.69 Z M 18.5 1.53 C 9.13 1.53 1.54 9.07 1.54 18.38 C 1.54 25.18 5.6 31.03 11.45 33.69 C 11.45 33.69 15.42 33.69 15.42 33.69 C 15.42 33.69 15.42 19.14 15.42 19.14 C 15.42 18.3 14.73 17.61 13.88 17.61 C 13.02 17.61 12.33 18.3 12.33 19.14 C 12.33 19.56 11.99 19.91 11.56 19.91 C 11.14 19.91 10.79 19.56 10.79 19.14 C 10.79 17.45 12.17 16.08 13.88 16.08 C 14.8 16.08 15.62 16.49 16.19 17.13 C 16.75 16.49 17.57 16.08 18.5 16.08 C 19.43 16.08 20.25 16.49 20.81 17.13 C 21.38 16.49 22.2 16.08 23.13 16.08 C 24.83 16.08 26.21 17.45 26.21 19.14 C 26.21 19.56 25.86 19.91 25.44 19.91 C 25.01 19.91 24.67 19.56 24.67 19.14 C 24.67 18.3 23.98 17.61 23.13 17.61 C 22.27 17.61 21.58 18.3 21.58 19.14 C 21.58 19.14 21.58 33.69 21.58 33.69 C 21.58 33.69 25.55 33.69 25.55 33.69 C 31.4 31.03 35.46 25.18 35.46 18.38 C 35.46 9.07 27.87 1.53 18.5 1.53 Z M 27.22 9.71 C 24.99 7.5 21.9 6.13 18.5 6.13 C 18.07 6.13 17.73 5.78 17.73 5.36 C 17.73 4.94 18.07 4.59 18.5 4.59 C 22.33 4.59 25.8 6.14 28.31 8.63 C 28.31 8.63 29.09 9.38 28.52 9.95 C 27.95 10.52 27.22 9.71 27.22 9.71 Z" />
</svg>