<?xml version="1.0" encoding="utf-8"?>
<!-- Generator: Avocode 2.4.3-3630f5a - http://avocode.com -->
<svg height="47" width="35" xmlns:xlink="http://www.w3.org/1999/xlink" xmlns="http://www.w3.org/2000/svg" viewBox="0 0 35 47">
    <path fill="#393939" fill-rule="evenodd" d="M 32.08 47 C 32.08 47 2.92 47 2.92 47 C 1.31 47 0 45.69 0 44.06 C 0 44.06 0 20.56 0 20.56 C 0 18.94 1.31 17.63 2.92 17.63 C 2.92 17.63 7.29 17.63 7.29 17.63 C 7.29 17.63 7.29 10.28 7.29 10.28 C 7.29 4.6 11.86 0 17.5 0 C 23.14 0 27.71 4.6 27.71 10.28 C 27.71 10.28 27.71 17.63 27.71 17.63 C 27.71 17.63 32.08 17.63 32.08 17.63 C 33.69 17.63 35 18.94 35 20.56 C 35 20.56 35 44.06 35 44.06 C 35 45.69 33.69 47 32.08 47 Z M 26.25 10.28 C 26.25 5.41 22.33 1.47 17.5 1.47 C 12.67 1.47 8.75 5.41 8.75 10.28 C 8.75 10.28 8.75 17.63 8.75 17.63 C 8.75 17.63 11.67 17.63 11.67 17.63 C 11.67 17.63 11.67 10.28 11.67 10.28 C 11.67 7.04 14.28 4.41 17.5 4.41 C 20.72 4.41 23.33 7.04 23.33 10.28 C 23.33 10.28 23.33 17.63 23.33 17.63 C 23.33 17.63 26.25 17.63 26.25 17.63 C 26.25 17.63 26.25 10.28 26.25 10.28 Z M 13.13 10.28 C 13.13 10.28 13.13 17.63 13.13 17.63 C 13.13 17.63 21.88 17.63 21.88 17.63 C 21.88 17.63 21.88 10.28 21.88 10.28 C 21.88 7.85 19.92 5.88 17.5 5.88 C 15.08 5.88 13.13 7.85 13.13 10.28 Z M 33.54 20.56 C 33.54 19.75 32.89 19.09 32.08 19.09 C 32.08 19.09 2.92 19.09 2.92 19.09 C 2.11 19.09 1.46 19.75 1.46 20.56 C 1.46 20.56 1.46 23.5 1.46 23.5 C 1.46 23.5 33.54 23.5 33.54 23.5 C 33.54 23.5 33.54 20.56 33.54 20.56 Z M 33.54 24.97 C 33.54 24.97 1.46 24.97 1.46 24.97 C 1.46 24.97 1.46 39.66 1.46 39.66 C 1.46 39.66 33.54 39.66 33.54 39.66 C 33.54 39.66 33.54 24.97 33.54 24.97 Z M 33.54 41.13 C 33.54 41.13 1.46 41.13 1.46 41.13 C 1.46 41.13 1.46 44.06 1.46 44.06 C 1.46 44.87 2.11 45.53 2.92 45.53 C 2.92 45.53 32.08 45.53 32.08 45.53 C 32.89 45.53 33.54 44.87 33.54 44.06 C 33.54 44.06 33.54 41.13 33.54 41.13 Z M 17.5 26.44 C 19.51 26.44 21.15 28.08 21.15 30.11 C 21.15 31.31 20.57 32.36 19.69 33.03 C 19.69 33.03 19.69 35.98 19.69 35.98 C 19.69 37.2 18.71 38.19 17.5 38.19 C 16.29 38.19 15.31 37.2 15.31 35.98 C 15.31 35.98 15.31 33.03 15.31 33.03 C 14.43 32.36 13.85 31.31 13.85 30.11 C 13.85 28.08 15.49 26.44 17.5 26.44 Z M 16.77 32.18 C 16.77 32.18 16.77 35.98 16.77 35.98 C 16.77 36.39 17.1 36.72 17.5 36.72 C 17.9 36.72 18.23 36.39 18.23 35.98 C 18.23 35.98 18.23 32.18 18.23 32.18 C 19.08 31.87 19.69 31.07 19.69 30.11 C 19.69 28.89 18.71 27.91 17.5 27.91 C 16.29 27.91 15.31 28.89 15.31 30.11 C 15.31 31.07 15.92 31.87 16.77 32.18 Z" />
</svg>