<?xml version="1.0" encoding="utf-8"?>
<!-- Generator: Avocode 2.4.3-3630f5a - http://avocode.com -->
<svg height="47" width="47" xmlns:xlink="http://www.w3.org/1999/xlink" xmlns="http://www.w3.org/2000/svg" viewBox="0 0 47 47">
    <path fill="#393939" fill-rule="evenodd" d="M 47 44.06 C 47 45.69 45.69 47 44.06 47 C 44.06 47 2.94 47 2.94 47 C 1.31 47 0 45.69 0 44.06 C 0 44.06 0 38.19 0 38.19 C 0 36.97 0.49 35.87 1.29 35.07 C 1.29 35.07 1.28 35.06 1.28 35.06 C 5.57 31.57 10.71 29.09 16.33 27.92 C 14.41 26.06 13.22 23.45 13.22 20.56 C 12 20.56 11.02 19.58 11.02 18.36 C 11.02 18.36 11.02 16.89 11.02 16.89 C 11.02 16.24 11.3 15.66 11.75 15.26 C 11.75 15.26 11.75 8.81 11.75 8.81 C 11.75 3.95 15.7 0 20.56 0 C 20.56 0 26.44 0 26.44 0 C 31.3 0 35.25 3.95 35.25 8.81 C 35.25 8.81 35.25 15.26 35.25 15.26 C 35.7 15.66 35.98 16.24 35.98 16.89 C 35.98 16.89 35.98 18.36 35.98 18.36 C 35.98 19.58 35 20.56 33.78 20.56 C 33.78 23.45 32.59 26.06 30.67 27.92 C 36.29 29.09 41.42 31.57 45.72 35.06 C 45.72 35.06 45.71 35.07 45.71 35.07 C 46.51 35.87 47 36.97 47 38.19 C 47 38.19 47 44.06 47 44.06 Z M 33.78 8.81 C 33.78 4.76 30.49 1.47 26.44 1.47 C 26.44 1.47 20.56 1.47 20.56 1.47 C 16.51 1.47 13.22 4.76 13.22 8.81 C 13.22 8.81 13.22 13.95 13.22 13.95 C 13.22 11.52 15.19 9.55 17.63 9.55 C 19.25 9.55 20.56 8.23 20.56 6.61 C 20.56 6.2 20.89 5.88 21.3 5.88 C 21.7 5.88 22.03 6.2 22.03 6.61 C 22.03 8.23 23.35 9.55 24.97 9.55 C 24.97 9.55 29.38 9.55 29.38 9.55 C 31.81 9.55 33.78 11.52 33.78 13.95 C 33.78 13.95 33.78 8.81 33.78 8.81 Z M 32.31 20.56 C 32.31 20.56 32.31 19.83 32.31 19.83 C 32.31 19.42 32.64 19.09 33.05 19.09 C 33.05 19.09 33.78 19.09 33.78 19.09 C 34.19 19.09 34.52 18.77 34.52 18.36 C 34.52 18.36 34.52 16.89 34.52 16.89 C 34.52 16.48 34.19 16.16 33.78 16.16 C 33.78 16.16 33.05 16.16 33.05 16.16 C 32.64 16.16 32.31 15.83 32.31 15.42 C 32.31 15.42 32.31 14.69 32.31 14.69 C 32.31 14.69 32.31 13.95 32.31 13.95 C 32.31 12.33 31 11.02 29.38 11.02 C 29.38 11.02 24.97 11.02 24.97 11.02 C 23.43 11.02 22.09 10.23 21.3 9.04 C 20.51 10.23 19.16 11.02 17.63 11.02 C 16 11.02 14.69 12.33 14.69 13.95 C 14.69 13.95 14.69 14.69 14.69 14.69 C 14.69 14.69 14.69 15.42 14.69 15.42 C 14.69 15.83 14.36 16.16 13.95 16.16 C 13.95 16.16 13.22 16.16 13.22 16.16 C 12.81 16.16 12.48 16.48 12.48 16.89 C 12.48 16.89 12.48 18.36 12.48 18.36 C 12.48 18.77 12.81 19.09 13.22 19.09 C 13.22 19.09 13.95 19.09 13.95 19.09 C 14.36 19.09 14.69 19.42 14.69 19.83 C 14.69 19.83 14.69 20.56 14.69 20.56 C 14.69 25.43 18.63 29.38 23.5 29.38 C 28.37 29.38 32.31 25.43 32.31 20.56 Z M 29.17 29.14 C 27.54 30.21 25.6 30.84 23.5 30.84 C 21.4 30.84 19.46 30.21 17.83 29.14 C 16.6 29.35 15.39 29.61 14.21 29.94 C 16.6 32.3 19.86 33.78 23.48 33.78 C 27.11 33.78 30.37 32.3 32.76 29.93 C 31.59 29.6 30.38 29.35 29.17 29.14 Z M 45.53 38.19 C 45.53 37.38 45.2 36.64 44.67 36.11 C 44.67 36.11 44.67 36.11 44.67 36.11 C 41.62 33.65 38.12 31.72 34.33 30.43 C 31.64 33.39 27.78 35.25 23.48 35.25 C 19.18 35.25 15.33 33.39 12.64 30.44 C 8.86 31.73 5.37 33.65 2.33 36.11 C 2.33 36.11 2.33 36.11 2.33 36.11 C 1.8 36.64 1.47 37.38 1.47 38.19 C 1.47 38.19 1.47 44.06 1.47 44.06 C 1.47 44.87 2.13 45.53 2.94 45.53 C 2.94 45.53 44.06 45.53 44.06 45.53 C 44.87 45.53 45.53 44.87 45.53 44.06 C 45.53 44.06 45.53 38.19 45.53 38.19 Z M 28.98 16.08 C 28.87 16.13 28.75 16.16 28.64 16.16 C 28.38 16.16 28.12 16.01 27.99 15.76 C 27.98 15.74 27.76 15.42 27.17 15.42 C 26.57 15.42 26.37 15.73 26.35 15.77 C 26.15 16.11 25.71 16.24 25.37 16.06 C 25.02 15.87 24.87 15.46 25.04 15.1 C 25.25 14.67 25.93 13.95 27.17 13.95 C 28.39 13.95 29.08 14.66 29.29 15.09 C 29.48 15.44 29.34 15.89 28.98 16.08 Z M 21.63 16.08 C 21.52 16.13 21.41 16.16 21.3 16.16 C 21.03 16.16 20.77 16.01 20.64 15.76 C 20.63 15.74 20.42 15.42 19.83 15.42 C 19.23 15.42 19.03 15.73 19.01 15.77 C 18.81 16.11 18.37 16.24 18.02 16.06 C 17.67 15.87 17.52 15.46 17.7 15.1 C 17.9 14.67 18.59 13.95 19.83 13.95 C 21.04 13.95 21.73 14.66 21.95 15.09 C 22.13 15.44 21.99 15.89 21.63 16.08 Z" />
</svg>