<svg xmlns="http://www.w3.org/2000/svg" xmlns:xlink="http://www.w3.org/1999/xlink" preserveAspectRatio="xMidYMid" width="38" height="38" viewBox="0 0 38 38">
  <defs>
    <style>

      .cls-3 {
        fill: #000000;
      }

      .cls-4 {
        fill: #ffffff;
      }
    </style>
  </defs>
  <g id="phonesvg">
    <circle id="circle-1" class="cls-3" cx="19" cy="19" r="19"/>
    <path d="M16.861,10.532 C16.861,10.532 15.980,11.005 15.980,11.005 C15.980,11.005 13.336,12.424 13.336,12.424 C13.222,12.485 13.120,12.570 13.036,12.672 C12.952,12.775 12.888,12.892 12.851,13.019 C12.810,13.153 12.111,16.485 14.475,20.891 C16.840,25.297 19.817,26.448 19.958,26.523 C20.003,26.547 20.052,26.560 20.099,26.577 C20.121,26.584 20.139,26.594 20.161,26.600 C20.271,26.631 20.382,26.641 20.492,26.633 C20.516,26.633 20.539,26.628 20.562,26.624 C20.680,26.608 20.796,26.579 20.900,26.523 C20.900,26.523 20.902,26.522 20.902,26.522 C20.902,26.522 23.545,25.103 23.545,25.103 C23.545,25.103 24.426,24.630 24.426,24.630 C24.913,24.369 25.096,23.764 24.834,23.277 C24.834,23.277 22.943,19.752 22.943,19.752 C22.682,19.265 22.076,19.082 21.589,19.343 C21.589,19.343 20.708,19.817 20.708,19.817 C20.708,19.817 18.817,16.292 18.817,16.292 C18.817,16.292 19.698,15.819 19.698,15.819 C20.185,15.558 20.367,14.952 20.106,14.465 C20.106,14.465 18.215,10.940 18.215,10.940 C17.953,10.453 17.348,10.271 16.861,10.532 ZM17.871,14.530 C17.871,14.530 16.990,15.002 16.990,15.002 C16.503,15.264 16.320,15.869 16.581,16.356 C16.581,16.356 19.419,21.643 19.419,21.643 C19.680,22.131 20.286,22.313 20.773,22.052 C20.773,22.052 21.654,21.579 21.654,21.579 C21.654,21.579 22.599,23.341 22.599,23.341 C22.599,23.341 20.459,24.489 20.459,24.489 C19.578,23.917 18.129,23.470 16.238,19.945 C14.346,16.421 14.577,14.737 14.696,13.964 C14.696,13.964 16.925,12.767 16.925,12.767 C16.925,12.767 17.871,14.530 17.871,14.530 Z" id="path-1" class="cls-4" fill-rule="evenodd"/>
  </g>
</svg>
