<?xml version="1.0" encoding="utf-8"?>
<!-- Generator: Avocode 2.4.3-3630f5a - http://avocode.com -->
<svg height="47" width="47" xmlns:xlink="http://www.w3.org/1999/xlink" xmlns="http://www.w3.org/2000/svg" viewBox="0 0 47 47">
    <path fill="#393939" fill-rule="evenodd" d="M 46.27 22.77 C 46.27 22.77 24.97 22.77 24.97 22.77 C 24.56 22.77 24.23 22.44 24.23 22.03 C 24.23 22.03 24.23 0.73 24.23 0.73 C 24.23 0.33 24.56 0 24.97 0 C 37.14 0 47 9.86 47 22.03 C 47 22.44 46.67 22.77 46.27 22.77 Z M 25.7 1.49 C 25.7 1.49 25.7 21.3 25.7 21.3 C 25.7 21.3 45.51 21.3 45.51 21.3 C 45.13 10.53 36.47 1.87 25.7 1.49 Z M 36.63 39.57 C 36.63 39.57 37.61 40.55 37.61 40.55 C 33.62 44.53 28.12 47 22.03 47 C 9.86 47 0 37.14 0 24.97 C 0 12.8 9.86 2.94 22.03 2.94 C 22.44 2.94 22.77 3.27 22.77 3.67 C 22.77 3.67 22.77 23.94 22.77 23.94 C 22.77 23.94 22.77 24.74 23.22 25.18 C 23.94 25.9 36.59 39.51 36.59 39.51 C 36.61 39.52 36.62 39.55 36.63 39.57 Z M 22.04 26.06 C 21.55 25.56 21.3 24.9 21.3 24.23 C 21.3 23.57 21.3 4.42 21.3 4.42 C 10.28 4.81 1.47 13.86 1.47 24.97 C 1.47 36.33 10.67 45.53 22.03 45.53 C 27.19 45.53 31.9 43.63 35.5 40.49 C 35.5 40.49 22.54 26.55 22.04 26.06 Z M 25.92 25.48 C 25.92 25.48 25.91 25.48 25.91 25.48 C 25.89 25.46 25.88 25.43 25.87 25.41 C 25.83 25.36 25.78 25.31 25.76 25.24 C 25.74 25.19 25.74 25.13 25.73 25.08 C 25.72 25.04 25.7 25.01 25.7 24.97 C 25.7 24.97 25.71 24.96 25.71 24.96 C 25.71 24.9 25.73 24.83 25.74 24.77 C 25.75 24.74 25.75 24.71 25.76 24.68 C 25.76 24.67 25.77 24.67 25.77 24.66 C 25.81 24.58 25.86 24.51 25.92 24.44 C 25.92 24.44 25.93 24.44 25.93 24.44 C 25.95 24.42 25.98 24.41 26.01 24.39 C 26.06 24.35 26.11 24.31 26.16 24.29 C 26.22 24.27 26.28 24.26 26.35 24.25 C 26.38 24.25 26.4 24.23 26.44 24.23 C 26.44 24.23 46.27 24.23 46.27 24.23 C 46.67 24.23 47 24.56 47 24.97 C 47 31.05 44.53 36.56 40.55 40.55 C 40.55 40.55 39.87 39.87 39.87 39.87 C 39.8 39.83 39.74 39.8 39.68 39.74 C 39.68 39.74 25.92 25.49 25.92 25.49 C 25.92 25.49 25.92 25.49 25.92 25.48 Z M 40.48 38.46 C 43.48 35.02 45.34 30.58 45.51 25.7 C 45.51 25.7 28.17 25.7 28.17 25.7 C 28.17 25.7 40.48 38.46 40.48 38.46 Z" />
</svg>