<?xml version="1.0" encoding="utf-8"?>
<!-- Generator: Avocode 2.4.3-3630f5a - http://avocode.com -->
<svg height="54" width="34" xmlns:xlink="http://www.w3.org/1999/xlink" xmlns="http://www.w3.org/2000/svg" viewBox="0 0 34 54">
    <path fill="#393939" fill-rule="evenodd" d="M 30.6 54 C 30.6 54 3.4 54 3.4 54 C 1.52 54 0 52.49 0 50.63 C 0 50.63 0 3.38 0 3.38 C 0 1.51 1.52 0 3.4 0 C 3.4 0 30.6 0 30.6 0 C 32.48 0 34 1.51 34 3.38 C 34 3.38 34 50.63 34 50.63 C 34 52.49 32.48 54 30.6 54 Z M 32.3 3.38 C 32.3 2.44 31.54 1.69 30.6 1.69 C 30.6 1.69 3.4 1.69 3.4 1.69 C 2.46 1.69 1.7 2.44 1.7 3.38 C 1.7 3.38 1.7 10.13 1.7 10.13 C 1.7 10.13 32.3 10.13 32.3 10.13 C 32.3 10.13 32.3 3.38 32.3 3.38 Z M 32.3 11.81 C 32.3 11.81 1.7 11.81 1.7 11.81 C 1.7 11.81 1.7 20.25 1.7 20.25 C 1.7 20.25 32.3 20.25 32.3 20.25 C 32.3 20.25 32.3 11.81 32.3 11.81 Z M 32.3 21.94 C 32.3 21.94 1.7 21.94 1.7 21.94 C 1.7 21.94 1.7 30.38 1.7 30.38 C 1.7 30.38 32.3 30.38 32.3 30.38 C 32.3 30.38 32.3 21.94 32.3 21.94 Z M 32.3 32.06 C 32.3 32.06 1.7 32.06 1.7 32.06 C 1.7 32.06 1.7 50.63 1.7 50.63 C 1.7 51.56 2.46 52.31 3.4 52.31 C 3.4 52.31 30.6 52.31 30.6 52.31 C 31.54 52.31 32.3 51.56 32.3 50.63 C 32.3 50.63 32.3 32.06 32.3 32.06 Z M 23.8 48.94 C 22.39 48.94 21.25 47.8 21.25 46.41 C 21.25 45.01 22.39 43.88 23.8 43.88 C 25.21 43.88 26.35 45.01 26.35 46.41 C 26.35 47.8 25.21 48.94 23.8 48.94 Z M 23.8 45.56 C 23.33 45.56 22.95 45.94 22.95 46.41 C 22.95 46.87 23.33 47.25 23.8 47.25 C 24.27 47.25 24.65 46.87 24.65 46.41 C 24.65 45.94 24.27 45.56 23.8 45.56 Z M 17 48.94 C 15.59 48.94 14.45 47.8 14.45 46.41 C 14.45 45.01 15.59 43.88 17 43.88 C 18.41 43.88 19.55 45.01 19.55 46.41 C 19.55 47.8 18.41 48.94 17 48.94 Z M 17 45.56 C 16.53 45.56 16.15 45.94 16.15 46.41 C 16.15 46.87 16.53 47.25 17 47.25 C 17.47 47.25 17.85 46.87 17.85 46.41 C 17.85 45.94 17.47 45.56 17 45.56 Z M 10.2 48.94 C 8.79 48.94 7.65 47.8 7.65 46.41 C 7.65 45.01 8.79 43.88 10.2 43.88 C 11.61 43.88 12.75 45.01 12.75 46.41 C 12.75 47.8 11.61 48.94 10.2 48.94 Z M 10.2 45.56 C 9.73 45.56 9.35 45.94 9.35 46.41 C 9.35 46.87 9.73 47.25 10.2 47.25 C 10.67 47.25 11.05 46.87 11.05 46.41 C 11.05 45.94 10.67 45.56 10.2 45.56 Z M 7.65 25.31 C 7.65 25.31 26.35 25.31 26.35 25.31 C 26.82 25.31 27.2 25.69 27.2 26.16 C 27.2 26.62 26.82 27 26.35 27 C 26.35 27 7.65 27 7.65 27 C 7.18 27 6.8 26.62 6.8 26.16 C 6.8 25.69 7.18 25.31 7.65 25.31 Z M 7.65 15.19 C 7.65 15.19 26.35 15.19 26.35 15.19 C 26.82 15.19 27.2 15.57 27.2 16.03 C 27.2 16.5 26.82 16.88 26.35 16.88 C 26.35 16.88 7.65 16.88 7.65 16.88 C 7.18 16.88 6.8 16.5 6.8 16.03 C 6.8 15.57 7.18 15.19 7.65 15.19 Z M 7.65 5.06 C 7.65 5.06 26.35 5.06 26.35 5.06 C 26.82 5.06 27.2 5.44 27.2 5.91 C 27.2 6.37 26.82 6.75 26.35 6.75 C 26.35 6.75 7.65 6.75 7.65 6.75 C 7.18 6.75 6.8 6.37 6.8 5.91 C 6.8 5.44 7.18 5.06 7.65 5.06 Z" />
</svg>