<?xml version="1.0" encoding="utf-8"?>
<!-- Generator: Avocode 2.4.3-3630f5a - http://avocode.com -->
<svg height="47" width="47" xmlns:xlink="http://www.w3.org/1999/xlink" xmlns="http://www.w3.org/2000/svg" viewBox="0 0 47 47">
    <path fill="#393939" fill-rule="evenodd" d="M 23.5 0 C 17.27 0 11.62 2.42 7.41 6.38 C 7.41 6.38 6.61 5.57 6.61 5.57 C 6.61 5.57 6.61 3.67 6.61 3.67 C 6.61 3.55 6.57 3.44 6.52 3.34 C 6.51 3.29 6.48 3.24 6.42 3.18 C 6.42 3.18 3.46 0.21 3.46 0.21 C 3.46 0.21 3.46 0.21 3.46 0.21 C 3.32 0.08 3.14 0 2.94 0 C 2.53 0 2.2 0.33 2.2 0.73 C 2.2 0.73 2.2 2.2 2.2 2.2 C 2.2 2.2 0.73 2.2 0.73 2.2 C 0.33 2.2 0 2.53 0 2.94 C 0 3.14 0.08 3.32 0.22 3.46 C 0.22 3.46 0.22 3.46 0.22 3.46 C 0.22 3.46 3.15 6.39 3.15 6.39 C 3.15 6.39 3.15 6.39 3.15 6.39 C 3.15 6.39 3.18 6.42 3.18 6.42 C 3.24 6.48 3.29 6.51 3.34 6.52 C 3.44 6.57 3.55 6.61 3.67 6.61 C 3.67 6.61 5.57 6.61 5.57 6.61 C 5.57 6.61 6.38 7.41 6.38 7.41 C 2.42 11.62 0 17.28 0 23.5 C 0 36.48 10.52 47 23.5 47 C 36.48 47 47 36.48 47 23.5 C 47 10.52 36.48 0 23.5 0 Z M 5.14 5.14 C 5.14 5.14 3.98 5.14 3.98 5.14 C 3.98 5.14 2.51 3.67 2.51 3.67 C 2.51 3.67 3.67 3.67 3.67 3.67 C 3.67 3.67 3.68 2.52 3.68 2.52 C 3.68 2.52 5.14 3.98 5.14 3.98 C 5.14 3.98 5.14 5.14 5.14 5.14 Z M 23.5 45.53 C 11.33 45.53 1.47 35.67 1.47 23.5 C 1.47 17.68 3.73 12.39 7.41 8.45 C 7.41 8.45 9.49 10.53 9.49 10.53 C 6.34 13.94 4.41 18.49 4.41 23.5 C 4.41 34.05 12.96 42.59 23.5 42.59 C 34.04 42.59 42.59 34.05 42.59 23.5 C 42.59 12.95 34.04 4.41 23.5 4.41 C 18.49 4.41 13.94 6.34 10.53 9.49 C 10.53 9.49 8.45 7.41 8.45 7.41 C 12.39 3.73 17.68 1.47 23.5 1.47 C 35.67 1.47 45.53 11.33 45.53 23.5 C 45.53 35.67 35.67 45.53 23.5 45.53 Z M 12.62 13.66 C 10.26 16.26 8.81 19.71 8.81 23.5 C 8.81 31.61 15.39 38.19 23.5 38.19 C 31.61 38.19 38.19 31.61 38.19 23.5 C 38.19 15.39 31.61 8.81 23.5 8.81 C 19.71 8.81 16.26 10.26 13.66 12.62 C 13.66 12.62 11.57 10.53 11.57 10.53 C 14.71 7.64 18.9 5.88 23.5 5.88 C 33.23 5.88 41.13 13.77 41.13 23.5 C 41.13 33.23 33.23 41.13 23.5 41.13 C 13.77 41.13 5.88 33.23 5.88 23.5 C 5.88 18.9 7.64 14.71 10.53 11.57 C 10.53 11.57 12.62 13.66 12.62 13.66 Z M 15.74 16.77 C 14.17 18.58 13.22 20.92 13.22 23.5 C 13.22 29.18 17.82 33.78 23.5 33.78 C 29.18 33.78 33.78 29.18 33.78 23.5 C 33.78 17.82 29.18 13.22 23.5 13.22 C 20.92 13.22 18.58 14.17 16.77 15.73 C 16.77 15.73 14.7 13.66 14.7 13.66 C 17.03 11.57 20.11 10.28 23.5 10.28 C 30.8 10.28 36.72 16.2 36.72 23.5 C 36.72 30.8 30.8 36.72 23.5 36.72 C 16.2 36.72 10.28 30.8 10.28 23.5 C 10.28 20.11 11.57 17.04 13.66 14.7 C 13.66 14.7 15.74 16.77 15.74 16.77 Z M 18.86 19.9 C 18.09 20.9 17.63 22.14 17.63 23.5 C 17.63 26.74 20.25 29.38 23.5 29.38 C 26.74 29.38 29.38 26.74 29.38 23.5 C 29.38 20.26 26.74 17.63 23.5 17.63 C 22.14 17.63 20.9 18.09 19.9 18.86 C 19.9 18.86 17.81 16.77 17.81 16.77 C 19.35 15.47 21.33 14.69 23.5 14.69 C 28.37 14.69 32.31 18.63 32.31 23.5 C 32.31 28.37 28.37 32.31 23.5 32.31 C 18.63 32.31 14.69 28.37 14.69 23.5 C 14.69 21.33 15.48 19.35 16.77 17.81 C 16.77 17.81 18.86 19.9 18.86 19.9 Z M 22.98 24.02 C 23.27 24.31 23.73 24.31 24.02 24.02 C 24.31 23.73 24.31 23.27 24.02 22.98 C 24.02 22.98 20.95 19.91 20.95 19.91 C 21.67 19.4 22.55 19.09 23.5 19.09 C 25.93 19.09 27.91 21.07 27.91 23.5 C 27.91 25.93 25.93 27.91 23.5 27.91 C 21.07 27.91 19.09 25.93 19.09 23.5 C 19.09 22.55 19.4 21.67 19.91 20.95 C 19.91 20.95 22.98 24.02 22.98 24.02 Z" />
</svg>