<?xml version="1.0" encoding="utf-8"?>
<!-- Generator: Adobe Illustrator 19.1.0, SVG Export Plug-In . SVG Version: 6.00 Build 0)  -->
<svg version="1.1" id="Слой_1" xmlns="http://www.w3.org/2000/svg" xmlns:xlink="http://www.w3.org/1999/xlink" x="0px" y="0px"
	 viewBox="0 0 103.2 39.3" style="enable-background:new 0 0 103.2 39.3;" xml:space="preserve">
<style type="text/css">
	.st0{fill:#FFFFFF;}
	.st1{opacity:0.7;}
	.st2{fill:#FDBB34;}
</style>
<g>
	<g>
		<g>
			<path class="st0" d="M34.8,27.5h-1V15.1h1V27.5z"/>
		</g>
		<g>
			<path class="st0" d="M44.1,27.5h-1.8c-1.2,0-2-0.3-2.7-0.9c-0.6-0.6-0.9-1.5-0.9-2.6V11.7h1v3.4h4.4v0.9h-4.4v8
				c0,0.8,0.2,1.4,0.6,1.8c0.4,0.5,1,0.7,1.7,0.7h2V27.5z"/>
		</g>
		<g>
			<path class="st0" d="M66.3,21.5c0,1.7-0.6,3.1-1.8,4.3c-1.2,1.2-2.7,1.8-4.4,1.8c-1.9,0-3.5-0.6-4.7-1.8
				c-1.2-1.2-1.9-2.7-1.9-4.6c0-1.8,0.6-3.3,1.8-4.6c1.2-1.3,2.7-1.9,4.6-1.9c1.1,0,2.2,0.3,3.2,0.8c1,0.5,1.7,1.3,2.3,2.2l-8.8,6
				L55.9,23l7.9-5.4c-1-1.2-2.3-1.9-4-1.9c-1.5,0-2.8,0.6-3.8,1.7c-1,1.1-1.5,2.4-1.5,3.9c0,1.5,0.5,2.8,1.5,3.8
				c1,1.1,2.3,1.6,3.8,1.6c1.5,0,2.7-0.5,3.8-1.5c1.1-1,1.6-2.3,1.6-3.7H66.3z"/>
		</g>
		<g>
			<path class="st0" d="M70.3,27.5h-1V9.2h1V27.5z"/>
		</g>
		<g>
			<path class="st0" d="M76.1,27.5h-1V15.1h1V27.5z"/>
		</g>
		<g>
			<path class="st0" d="M89.6,27.5c-1.2,0-2.3-0.3-3.2-1c-0.9-0.7-1.6-1.5-2.1-2.7c-0.4,1.1-1.1,2-2.1,2.7c-1,0.7-2,1-3.2,1v-0.9
				c1.2,0,2.4-0.5,3.3-1.5c1-1,1.5-2.3,1.5-3.7c0-1.4-0.5-2.6-1.4-3.7c-1-1-2.1-1.5-3.3-1.5v-0.9c1.2,0,2.3,0.3,3.2,1
				c0.9,0.7,1.6,1.5,2.1,2.7c0.4-1.1,1.1-2,2.1-2.7c1-0.7,2-1,3.2-1v0.9c-1.2,0-2.4,0.5-3.3,1.5c-1,1-1.5,2.3-1.5,3.7
				c0,1.4,0.5,2.6,1.4,3.7c1,1,2.1,1.5,3.3,1.5V27.5z"/>
		</g>
		<g>
			<path class="st0" d="M93.4,27.5h-1V15.1h1V27.5z"/>
		</g>
		<g>
			<path class="st0" d="M103.2,16.1h-1c-1,0-1.9,0.5-2.7,1.4c-0.8,0.9-1.1,2.1-1.1,3.5v6.4h-1V15.1h1v2.4c0.3-0.7,0.8-1.2,1.5-1.7
				c0.7-0.5,1.4-0.7,2.2-0.7h1.1V16.1z"/>
		</g>
	</g>
	<g class="st1">
		<circle class="st0" cx="9.6" cy="29.7" r="9.6"/>
	</g>
	<g class="st1">
		<circle class="st0" cx="12.9" cy="20.9" r="6.1"/>
	</g>
	<g>
		<circle class="st2" cx="3.9" cy="14.6" r="3.9"/>
	</g>
	<g class="st1">
		<circle class="st0" cx="5.1" cy="11.6" r="3.2"/>
	</g>
	<g class="st1">
		<circle class="st0" cx="12" cy="9.4" r="2.2"/>
	</g>
	<g>
		<circle class="st2" cx="12.2" cy="1.5" r="1.5"/>
	</g>
	<g class="st1">
		<circle class="st0" cx="8.3" cy="6.1" r="1.5"/>
	</g>
</g>
</svg>
