<svg version="1.1" xmlns="http://www.w3.org/2000/svg" xmlns:xlink="http://www.w3.org/1999/xlink" 
	 viewBox="0 0 159 73" enable-background="new 0 0 159 73" xml:space="preserve">
<g>
	<g>
		<path fill="#FFFFFF" d="M55.9,67.4h-1.5V48.9h1.5V67.4z"/>
	</g>
	<g>
		<path fill="#FFFFFF" d="M69.8,67.4h-2.7c-1.7,0-3.1-0.5-4-1.4c-0.9-0.9-1.4-2.2-1.4-3.9V43.8h1.5v5.1h6.6v1.4h-6.6v11.9
			c0,1.1,0.3,2.1,1,2.7c0.7,0.7,1.5,1,2.6,1h3V67.4z"/>
	</g>
	<g>
		<path fill="#FFFFFF" d="M103.2,58.5c0,2.5-0.9,4.7-2.8,6.5c-1.8,1.8-4.1,2.8-6.7,2.8c-2.9,0-5.2-0.9-7.1-2.8
			c-1.9-1.8-2.8-4.1-2.8-6.8c0-2.7,0.9-5,2.7-6.9c1.8-1.9,4.1-2.8,6.9-2.8c1.7,0,3.3,0.4,4.8,1.2c1.5,0.8,2.6,1.9,3.5,3.3l-13.2,9
			l-0.9-1.2l11.9-8c-1.5-1.9-3.5-2.8-6-2.8c-2.3,0-4.2,0.8-5.8,2.5c-1.5,1.7-2.3,3.6-2.3,5.9c0,2.2,0.8,4.2,2.3,5.7
			c1.5,1.6,3.5,2.4,5.7,2.4c2.2,0,4.1-0.8,5.7-2.3c1.6-1.5,2.4-3.4,2.4-5.5H103.2z"/>
	</g>
	<g>
		<path fill="#FFFFFF" d="M109.3,67.4h-1.5V40h1.5V67.4z"/>
	</g>
	<g>
		<path fill="#FFFFFF" d="M117.9,67.4h-1.5V48.9h1.5V67.4z"/>
	</g>
	<g>
		<path fill="#FFFFFF" d="M138.1,67.4c-1.8,0-3.4-0.5-4.8-1.5c-1.4-1-2.5-2.3-3.1-4c-0.7,1.7-1.7,3-3.1,4c-1.4,1-3,1.5-4.8,1.5V66
			c1.9,0,3.5-0.8,5-2.3c1.5-1.5,2.2-3.4,2.2-5.5c0-2.1-0.7-4-2.2-5.5c-1.4-1.5-3.1-2.3-5-2.3v-1.4c1.8,0,3.4,0.5,4.8,1.5
			c1.4,1,2.5,2.3,3.1,4c0.6-1.7,1.7-3,3.1-4c1.4-1,3-1.5,4.8-1.5v1.4c-1.9,0-3.5,0.8-5,2.3c-1.5,1.5-2.2,3.4-2.2,5.5
			c0,2.1,0.7,4,2.2,5.5c1.4,1.5,3.1,2.3,5,2.3V67.4z"/>
	</g>
	<g>
		<path fill="#FFFFFF" d="M143.9,67.4h-1.5V48.9h1.5V67.4z"/>
	</g>
	<g>
		<path fill="#FFFFFF" d="M158.6,50.3H157c-1.5,0-2.8,0.7-4,2.1c-1.1,1.4-1.7,3.2-1.7,5.3v9.7h-1.5V48.9h1.5v3.6
			c0.5-1,1.2-1.8,2.3-2.5c1-0.7,2.1-1,3.3-1h1.7V50.3z"/>
	</g>
</g>
<g opacity="0.7">
	<circle fill="#FFFFFF" cx="17.7" cy="54.8" r="17.7"/>
</g>
<g opacity="0.7">
	<circle fill="#FFFFFF" cx="23.8" cy="38.4" r="11.3"/>
</g>
<g>
	<circle fill="#FDBB34" cx="7.1" cy="27" r="7.1"/>
</g>
<g opacity="0.7">
	<circle fill="#FFFFFF" cx="9.4" cy="21.4" r="5.9"/>
</g>
<g opacity="0.7">
	<circle fill="#FFFFFF" cx="22.1" cy="17.3" r="4.1"/>
</g>
<g>
	<circle fill="#FDBB34" cx="22.5" cy="2.8" r="2.8"/>
</g>
<g opacity="0.7">
	<circle fill="#FFFFFF" cx="15.3" cy="11.2" r="2.8"/>
</g>
</svg>
